<mxfile host="app.diagrams.net" modified="2021-03-10T19:23:37.275Z" agent="5.0 (Windows NT 10.0; Win64; x64) AppleWebKit/537.36 (KHTML, like Gecko) Chrome/88.0.4324.152 YaBrowser/21.2.2.101 Yowser/2.5 Safari/537.36" etag="p6emLU3HHAEdZlYqGYv7" version="14.4.5" type="github">
  <diagram id="C5RBs43oDa-KdzZeNtuy" name="Page-1">
    <mxGraphModel dx="1374" dy="789" grid="1" gridSize="10" guides="1" tooltips="1" connect="1" arrows="1" fold="1" page="1" pageScale="1" pageWidth="827" pageHeight="1169" math="0" shadow="0">
      <root>
        <mxCell id="WIyWlLk6GJQsqaUBKTNV-0" />
        <mxCell id="WIyWlLk6GJQsqaUBKTNV-1" parent="WIyWlLk6GJQsqaUBKTNV-0" />
        <mxCell id="7uN_4HL-dVF2DyxEmrxj-0" value="QObject" style="swimlane;fontStyle=1;align=center;verticalAlign=top;childLayout=stackLayout;horizontal=1;startSize=26;horizontalStack=0;resizeParent=1;resizeParentMax=0;resizeLast=0;collapsible=1;marginBottom=0;" vertex="1" parent="WIyWlLk6GJQsqaUBKTNV-1">
          <mxGeometry x="1130" y="140" width="160" height="90" as="geometry" />
        </mxCell>
        <mxCell id="7uN_4HL-dVF2DyxEmrxj-1" style="edgeStyle=orthogonalEdgeStyle;rounded=0;orthogonalLoop=1;jettySize=auto;html=1;exitX=0.5;exitY=1;exitDx=0;exitDy=0;entryX=0.5;entryY=0;entryDx=0;entryDy=0;" edge="1" parent="WIyWlLk6GJQsqaUBKTNV-1" source="7uN_4HL-dVF2DyxEmrxj-2" target="7uN_4HL-dVF2DyxEmrxj-19">
          <mxGeometry relative="1" as="geometry" />
        </mxCell>
        <mxCell id="7uN_4HL-dVF2DyxEmrxj-2" value="Plotter" style="swimlane;fontStyle=1;align=center;verticalAlign=top;childLayout=stackLayout;horizontal=1;startSize=26;horizontalStack=0;resizeParent=1;resizeParentMax=0;resizeLast=0;collapsible=1;marginBottom=0;" vertex="1" parent="WIyWlLk6GJQsqaUBKTNV-1">
          <mxGeometry x="1350" y="300" width="160" height="80" as="geometry" />
        </mxCell>
        <mxCell id="7uN_4HL-dVF2DyxEmrxj-3" value="" style="endArrow=block;endSize=16;endFill=0;html=1;entryX=0.5;entryY=1;entryDx=0;entryDy=0;exitX=0.5;exitY=0;exitDx=0;exitDy=0;" edge="1" parent="WIyWlLk6GJQsqaUBKTNV-1" source="7uN_4HL-dVF2DyxEmrxj-2" target="7uN_4HL-dVF2DyxEmrxj-0">
          <mxGeometry width="160" relative="1" as="geometry">
            <mxPoint x="850" y="310" as="sourcePoint" />
            <mxPoint x="1010" y="310" as="targetPoint" />
          </mxGeometry>
        </mxCell>
        <mxCell id="7uN_4HL-dVF2DyxEmrxj-4" style="edgeStyle=orthogonalEdgeStyle;rounded=0;orthogonalLoop=1;jettySize=auto;html=1;exitX=1;exitY=0.5;exitDx=0;exitDy=0;entryX=0;entryY=0.5;entryDx=0;entryDy=0;" edge="1" parent="WIyWlLk6GJQsqaUBKTNV-1" source="7uN_4HL-dVF2DyxEmrxj-5" target="7uN_4HL-dVF2DyxEmrxj-2">
          <mxGeometry relative="1" as="geometry" />
        </mxCell>
        <mxCell id="7uN_4HL-dVF2DyxEmrxj-5" value="FunctionBox" style="swimlane;fontStyle=1;align=center;verticalAlign=top;childLayout=stackLayout;horizontal=1;startSize=26;horizontalStack=0;resizeParent=1;resizeParentMax=0;resizeLast=0;collapsible=1;marginBottom=0;" vertex="1" parent="WIyWlLk6GJQsqaUBKTNV-1">
          <mxGeometry x="910" y="300" width="160" height="80" as="geometry" />
        </mxCell>
        <mxCell id="7uN_4HL-dVF2DyxEmrxj-6" value="" style="endArrow=block;endSize=16;endFill=0;html=1;entryX=0.5;entryY=1;entryDx=0;entryDy=0;exitX=0.5;exitY=0;exitDx=0;exitDy=0;" edge="1" parent="WIyWlLk6GJQsqaUBKTNV-1" source="7uN_4HL-dVF2DyxEmrxj-5" target="7uN_4HL-dVF2DyxEmrxj-0">
          <mxGeometry width="160" relative="1" as="geometry">
            <mxPoint x="1050" y="370" as="sourcePoint" />
            <mxPoint x="1160" y="300" as="targetPoint" />
          </mxGeometry>
        </mxCell>
        <mxCell id="7uN_4HL-dVF2DyxEmrxj-7" style="edgeStyle=orthogonalEdgeStyle;rounded=0;orthogonalLoop=1;jettySize=auto;html=1;exitX=0.5;exitY=1;exitDx=0;exitDy=0;entryX=0.5;entryY=0;entryDx=0;entryDy=0;" edge="1" parent="WIyWlLk6GJQsqaUBKTNV-1" source="7uN_4HL-dVF2DyxEmrxj-9" target="7uN_4HL-dVF2DyxEmrxj-10">
          <mxGeometry relative="1" as="geometry">
            <Array as="points">
              <mxPoint x="990" y="613" />
              <mxPoint x="820" y="613" />
            </Array>
          </mxGeometry>
        </mxCell>
        <mxCell id="7uN_4HL-dVF2DyxEmrxj-8" style="edgeStyle=orthogonalEdgeStyle;rounded=0;orthogonalLoop=1;jettySize=auto;html=1;entryX=1;entryY=0.5;entryDx=0;entryDy=0;exitX=0;exitY=0.5;exitDx=0;exitDy=0;" edge="1" parent="WIyWlLk6GJQsqaUBKTNV-1" source="7uN_4HL-dVF2DyxEmrxj-9" target="7uN_4HL-dVF2DyxEmrxj-11">
          <mxGeometry relative="1" as="geometry">
            <mxPoint x="1070" y="560" as="sourcePoint" />
            <Array as="points">
              <mxPoint x="760" y="498" />
            </Array>
          </mxGeometry>
        </mxCell>
        <mxCell id="7uN_4HL-dVF2DyxEmrxj-9" value="MathExpression" style="swimlane;fontStyle=1;align=center;verticalAlign=top;childLayout=stackLayout;horizontal=1;startSize=26;horizontalStack=0;resizeParent=1;resizeParentMax=0;resizeLast=0;collapsible=1;marginBottom=0;" vertex="1" parent="WIyWlLk6GJQsqaUBKTNV-1">
          <mxGeometry x="910" y="460" width="160" height="75" as="geometry" />
        </mxCell>
        <mxCell id="7uN_4HL-dVF2DyxEmrxj-10" value="MathParser" style="swimlane;fontStyle=1;align=center;verticalAlign=top;childLayout=stackLayout;horizontal=1;startSize=26;horizontalStack=0;resizeParent=1;resizeParentMax=0;resizeLast=0;collapsible=1;marginBottom=0;" vertex="1" parent="WIyWlLk6GJQsqaUBKTNV-1">
          <mxGeometry x="740" y="665" width="160" height="80" as="geometry" />
        </mxCell>
        <mxCell id="7uN_4HL-dVF2DyxEmrxj-11" value="MathChecker" style="swimlane;fontStyle=1;align=center;verticalAlign=top;childLayout=stackLayout;horizontal=1;startSize=26;horizontalStack=0;resizeParent=1;resizeParentMax=0;resizeLast=0;collapsible=1;marginBottom=0;" vertex="1" parent="WIyWlLk6GJQsqaUBKTNV-1">
          <mxGeometry x="530" y="457.5" width="160" height="80" as="geometry" />
        </mxCell>
        <mxCell id="7uN_4HL-dVF2DyxEmrxj-12" value="1..*" style="text;html=1;align=center;verticalAlign=middle;resizable=0;points=[];autosize=1;" vertex="1" parent="WIyWlLk6GJQsqaUBKTNV-1">
          <mxGeometry x="960" y="540" width="30" height="20" as="geometry" />
        </mxCell>
        <mxCell id="7uN_4HL-dVF2DyxEmrxj-13" value="1" style="text;html=1;align=center;verticalAlign=middle;resizable=0;points=[];autosize=1;" vertex="1" parent="WIyWlLk6GJQsqaUBKTNV-1">
          <mxGeometry x="797" y="645" width="20" height="20" as="geometry" />
        </mxCell>
        <mxCell id="7uN_4HL-dVF2DyxEmrxj-14" value="Parsing into token list at" style="text;html=1;align=center;verticalAlign=middle;resizable=0;points=[];autosize=1;" vertex="1" parent="WIyWlLk6GJQsqaUBKTNV-1">
          <mxGeometry x="840" y="590" width="140" height="20" as="geometry" />
        </mxCell>
        <mxCell id="7uN_4HL-dVF2DyxEmrxj-15" value="1" style="text;html=1;align=center;verticalAlign=middle;resizable=0;points=[];autosize=1;" vertex="1" parent="WIyWlLk6GJQsqaUBKTNV-1">
          <mxGeometry x="690" y="470" width="20" height="20" as="geometry" />
        </mxCell>
        <mxCell id="7uN_4HL-dVF2DyxEmrxj-16" value="Checks for correctness at" style="text;html=1;align=center;verticalAlign=middle;resizable=0;points=[];autosize=1;" vertex="1" parent="WIyWlLk6GJQsqaUBKTNV-1">
          <mxGeometry x="721.5" y="470" width="150" height="20" as="geometry" />
        </mxCell>
        <mxCell id="7uN_4HL-dVF2DyxEmrxj-17" value="1..*" style="text;html=1;align=center;verticalAlign=middle;resizable=0;points=[];autosize=1;" vertex="1" parent="WIyWlLk6GJQsqaUBKTNV-1">
          <mxGeometry x="880" y="470" width="30" height="20" as="geometry" />
        </mxCell>
        <mxCell id="7uN_4HL-dVF2DyxEmrxj-18" value="" style="endArrow=diamondThin;endFill=0;endSize=24;html=1;entryX=0.5;entryY=1;entryDx=0;entryDy=0;exitX=0.5;exitY=0;exitDx=0;exitDy=0;" edge="1" parent="WIyWlLk6GJQsqaUBKTNV-1" source="7uN_4HL-dVF2DyxEmrxj-9" target="7uN_4HL-dVF2DyxEmrxj-5">
          <mxGeometry width="160" relative="1" as="geometry">
            <mxPoint x="780" y="480" as="sourcePoint" />
            <mxPoint x="940" y="480" as="targetPoint" />
          </mxGeometry>
        </mxCell>
        <mxCell id="7uN_4HL-dVF2DyxEmrxj-19" value="MathCalculator" style="swimlane;fontStyle=1;align=center;verticalAlign=top;childLayout=stackLayout;horizontal=1;startSize=26;horizontalStack=0;resizeParent=1;resizeParentMax=0;resizeLast=0;collapsible=1;marginBottom=0;" vertex="1" parent="WIyWlLk6GJQsqaUBKTNV-1">
          <mxGeometry x="1350" y="540" width="160" height="80" as="geometry" />
        </mxCell>
        <mxCell id="7uN_4HL-dVF2DyxEmrxj-20" value="1" style="text;html=1;align=center;verticalAlign=middle;resizable=0;points=[];autosize=1;" vertex="1" parent="WIyWlLk6GJQsqaUBKTNV-1">
          <mxGeometry x="1440" y="390" width="20" height="20" as="geometry" />
        </mxCell>
        <mxCell id="7uN_4HL-dVF2DyxEmrxj-21" value="1" style="text;html=1;align=center;verticalAlign=middle;resizable=0;points=[];autosize=1;" vertex="1" parent="WIyWlLk6GJQsqaUBKTNV-1">
          <mxGeometry x="1440" y="517.5" width="20" height="20" as="geometry" />
        </mxCell>
        <mxCell id="7uN_4HL-dVF2DyxEmrxj-22" value="table of values is calculated at" style="text;html=1;align=center;verticalAlign=middle;resizable=0;points=[];autosize=1;" vertex="1" parent="WIyWlLk6GJQsqaUBKTNV-1">
          <mxGeometry x="1440" y="450" width="180" height="20" as="geometry" />
        </mxCell>
        <mxCell id="7uN_4HL-dVF2DyxEmrxj-23" value="Drags to" style="text;html=1;align=center;verticalAlign=middle;resizable=0;points=[];autosize=1;" vertex="1" parent="WIyWlLk6GJQsqaUBKTNV-1">
          <mxGeometry x="1170" y="350" width="60" height="20" as="geometry" />
        </mxCell>
        <mxCell id="7uN_4HL-dVF2DyxEmrxj-24" value="1..*" style="text;html=1;align=center;verticalAlign=middle;resizable=0;points=[];autosize=1;" vertex="1" parent="WIyWlLk6GJQsqaUBKTNV-1">
          <mxGeometry x="1075" y="350" width="30" height="20" as="geometry" />
        </mxCell>
        <mxCell id="7uN_4HL-dVF2DyxEmrxj-25" value="1.*" style="text;html=1;align=center;verticalAlign=middle;resizable=0;points=[];autosize=1;" vertex="1" parent="WIyWlLk6GJQsqaUBKTNV-1">
          <mxGeometry x="1305" y="350" width="30" height="20" as="geometry" />
        </mxCell>
      </root>
    </mxGraphModel>
  </diagram>
</mxfile>
